<svg width="389" height="390" viewBox="0 0 389 390" fill="none" xmlns="http://www.w3.org/2000/svg">
<path d="M304.976 102.029V129.259C304.976 142.485 294.279 153.377 280.664 153.377C267.243 153.377 256.351 142.485 256.351 129.259V102.029C256.351 95.5809 258.913 89.3969 263.472 84.8375C268.031 80.278 274.215 77.7165 280.664 77.7165C294.279 77.7165 304.976 88.6085 304.976 102.029ZM218.813 124.202V265.604C218.813 272.052 216.251 278.236 211.692 282.795C207.132 287.355 200.948 289.916 194.5 289.916C188.052 289.916 181.868 287.355 177.308 282.795C172.749 278.236 170.188 272.052 170.188 265.604V124.202C170.188 110.976 181.08 99.8895 194.5 99.8895C207.921 99.8895 218.813 110.976 218.813 124.202ZM389 181.385V208.615C389 221.841 378.108 232.733 364.688 232.733C351.267 232.733 340.375 221.841 340.375 208.615V181.385C340.375 167.965 351.267 157.267 364.688 157.267C378.108 157.267 389 167.965 389 181.385ZM48.625 181.385V208.615C48.625 221.841 37.733 232.733 24.3125 232.733C10.6975 232.733 0 221.841 0 208.615V181.385C0 167.965 10.6975 157.267 24.3125 157.267C37.733 157.267 48.625 167.965 48.625 181.385ZM132.649 260.741V287.777C132.649 301.003 121.757 311.7 108.337 311.7C94.916 311.7 84.024 301.003 84.024 287.777V260.741C84.024 247.126 94.916 236.429 108.337 236.429C114.785 236.429 120.969 238.99 125.528 243.549C130.088 248.109 132.649 254.293 132.649 260.741ZM218.813 338.152V365.188C218.813 371.636 216.251 377.82 211.692 382.379C207.132 386.939 200.948 389.5 194.5 389.5C188.052 389.5 181.868 386.939 177.308 382.379C172.749 377.82 170.188 371.636 170.188 365.188V338.152C170.188 331.704 172.749 325.52 177.308 320.96C181.868 316.401 188.052 313.84 194.5 313.84C200.948 313.84 207.132 316.401 211.692 320.96C216.251 325.52 218.813 331.704 218.813 338.152ZM218.813 24.8125V51.848C218.813 58.2961 216.251 64.4801 211.692 69.0395C207.132 73.599 200.948 76.1605 194.5 76.1605C188.052 76.1605 181.868 73.599 177.308 69.0395C172.749 64.4801 170.188 58.2961 170.188 51.848V24.8125C170.188 11.1975 181.08 0.5 194.5 0.5C200.948 0.5 207.132 3.06149 211.692 7.62097C216.251 12.1804 218.813 18.3644 218.813 24.8125ZM304.976 201.613V287.777C304.976 301.197 294.279 311.7 280.664 311.7C267.243 311.7 256.351 301.197 256.351 287.777V201.613C256.351 187.998 267.243 177.301 280.664 177.301C294.279 177.301 304.976 187.998 304.976 201.613ZM132.649 102.029V188.193C132.649 201.807 121.757 212.505 108.337 212.505C105.144 212.505 101.982 211.876 99.0325 210.654C96.0828 209.433 93.4026 207.642 91.145 205.384C88.8874 203.126 87.0965 200.446 85.8747 197.496C84.6529 194.547 84.024 191.385 84.024 188.193V102.029C84.024 95.5809 86.5855 89.3969 91.145 84.8375C95.7045 80.278 101.888 77.7165 108.337 77.7165C114.785 77.7165 120.969 80.278 125.528 84.8375C130.088 89.3969 132.649 95.5809 132.649 102.029Z" fill="#6AEB93"/>
</svg>
